<svg width="57" height="48" viewBox="0 0 57 48" fill="none" xmlns="http://www.w3.org/2000/svg">
<g opacity="0.6">
<g clip-path="url(#clip0_229_49)">
<path opacity="0.5" d="M25.2 32C22.1101 32 20.5657 32 19.4558 31.2297C18.9752 30.8961 18.5625 30.4674 18.2414 29.968C17.5 28.8149 17.5 27.2114 17.5 24C17.5 20.7886 17.5 19.1851 18.2414 18.032C18.5625 17.5326 18.9752 17.1039 19.4558 16.7703C20.5657 16 22.109 16 25.2 16H31.8C34.8899 16 36.4343 16 37.5442 16.7703C38.0248 17.1039 38.4375 17.5326 38.7586 18.032C39.5 19.1851 39.5 20.7886 39.5 24C39.5 27.2114 39.5 28.8149 38.7586 29.968C38.4375 30.4674 38.0248 30.8961 37.5442 31.2297C36.4343 32 34.891 32 31.8 32H25.2Z" stroke="white" stroke-width="1.5"/>
<path d="M28.5 21C29.2956 21 30.0587 21.3161 30.6213 21.8787C31.1839 22.4413 31.5 23.2044 31.5 24C31.5 24.7956 31.1839 25.5587 30.6213 26.1213C30.0587 26.6839 29.2956 27 28.5 27C27.7044 27 26.9413 26.6839 26.3787 26.1213C25.8161 25.5587 25.5 24.7956 25.5 24C25.5 23.2044 25.8161 22.4413 26.3787 21.8787C26.9413 21.3161 27.7044 21 28.5 21Z" stroke="white" stroke-width="1.5"/>
<path d="M22 27V21M35 27V21" stroke="white" stroke-width="1.5" stroke-linecap="round"/>
</g>
</g>
<defs>
<clipPath id="clip0_229_49">
<rect width="24" height="24" fill="white" transform="translate(16.5 12)"/>
</clipPath>
</defs>
</svg>
