<svg width="16" height="17" viewBox="0 0 16 17" fill="none" xmlns="http://www.w3.org/2000/svg">
<g opacity="0.6">
<path d="M9.3335 5.8335H2.66683C1.9315 5.8335 1.3335 6.4315 1.3335 7.16683V13.8335C1.3335 14.5688 1.9315 15.1668 2.66683 15.1668H9.3335C10.0688 15.1668 10.6668 14.5688 10.6668 13.8335V7.16683C10.6668 6.4315 10.0688 5.8335 9.3335 5.8335Z" fill="white"/>
<path d="M13.3335 1.8335H6.66683C6.31321 1.8335 5.97407 1.97397 5.72402 2.22402C5.47397 2.47407 5.3335 2.81321 5.3335 3.16683V4.50016H10.6668C11.0205 4.50016 11.3596 4.64064 11.6096 4.89069C11.8597 5.14074 12.0002 5.47987 12.0002 5.8335V11.1668H13.3335C13.6871 11.1668 14.0263 11.0264 14.2763 10.7763C14.5264 10.5263 14.6668 10.1871 14.6668 9.8335V3.16683C14.6668 2.81321 14.5264 2.47407 14.2763 2.22402C14.0263 1.97397 13.6871 1.8335 13.3335 1.8335Z" fill="white"/>
</g>
</svg>
