<svg width="24" height="24" viewBox="0 0 24 24" fill="none" xmlns="http://www.w3.org/2000/svg">
<g opacity="0.6">
<path fill-rule="evenodd" clip-rule="evenodd" d="M3.67481 10.1399H18.0598C18.2398 10.1399 18.4048 10.2149 18.5398 10.3499L20.8198 12.6899C21.2398 13.1249 20.9398 13.8599 20.3398 13.8599H5.95481C5.77481 13.8599 5.60981 13.7849 5.47481 13.6499L3.19481 11.3099C2.77481 10.8749 3.07481 10.1399 3.67481 10.1399ZM3.19481 7.03486L5.47481 4.69486C5.59481 4.55986 5.77481 4.48486 5.95481 4.48486H20.3248C20.9248 4.48486 21.2248 5.21986 20.8048 5.65486L18.5398 7.99486C18.4198 8.12986 18.2398 8.20486 18.0598 8.20486H3.67481C3.07481 8.20486 2.77481 7.46986 3.19481 7.03486ZM20.8048 16.9499L18.5248 19.2899C18.3898 19.4249 18.2248 19.4999 18.0448 19.4999H3.67481C3.07481 19.4999 2.77481 18.7649 3.19481 18.3299L5.47481 15.9899C5.59481 15.8549 5.77481 15.7799 5.95481 15.7799H20.3248C20.9248 15.7799 21.2248 16.5149 20.8048 16.9499Z" fill="white"/>
</g>
</svg>
