<svg width="57" height="48" viewBox="0 0 57 48" fill="none" xmlns="http://www.w3.org/2000/svg">
<g opacity="0.6">
<path d="M17.5 28.4696C17.5 26.4364 18.6 24.6574 20.228 23.6961C20.965 23.2652 21.9 23.7845 21.9 24.6464C21.9 25.0442 21.691 25.3978 21.35 25.5967C20.36 26.1712 19.7 27.2431 19.7 28.4696C19.7 30.5138 21.548 32.127 23.66 31.7182C25.222 31.4088 26.3 29.9392 26.3 28.337C26.3 27.7956 26.729 27.3646 27.268 27.3646H32.768C33.065 27.0221 33.505 26.8121 34 26.8121C34.913 26.8121 35.65 27.5525 35.65 28.4696C35.65 29.3867 34.913 30.127 34 30.127C33.516 30.127 33.076 29.9171 32.768 29.5746H28.39C28.1186 30.9173 27.3602 32.1108 26.262 32.9234C25.1639 33.736 23.8043 34.1097 22.4473 33.972C21.0902 33.8343 19.8325 33.195 18.9183 32.1782C18.0041 31.1614 17.4986 29.8397 17.5 28.4696ZM33.307 18.5249C34.022 18.5249 34.561 17.8398 34.374 17.1436C34.0709 15.957 33.3831 14.9055 32.419 14.1552C31.455 13.4048 30.2696 12.9984 29.05 13C27.9513 13.0009 26.878 13.3322 25.9683 13.9512C25.0587 14.5702 24.3544 15.4487 23.9461 16.4733C23.5379 17.498 23.4444 18.622 23.6776 19.7005C23.9109 20.779 24.4603 21.7627 25.255 22.5248L22.67 26.8342C21.922 26.9889 21.35 27.663 21.35 28.4696C21.35 29.3867 22.087 30.127 23 30.127C23.2591 30.1274 23.5147 30.0663 23.7459 29.9487C23.9772 29.8312 24.1775 29.6606 24.3308 29.4506C24.484 29.2407 24.5858 28.9975 24.6279 28.7406C24.67 28.4837 24.6512 28.2205 24.573 27.9723L27.719 22.7237C27.994 22.2707 27.862 21.674 27.411 21.4088C26.421 20.8232 25.75 19.7514 25.75 18.5249C25.75 16.7017 27.235 15.2099 29.05 15.2099C30.568 15.2099 31.844 16.2376 32.229 17.6409C32.372 18.1492 32.79 18.5249 33.307 18.5249ZM34 25.1547C33.582 25.1547 33.175 25.232 32.801 25.3757C32.361 25.5525 31.855 25.3315 31.613 24.9226L28.753 20.1492C27.983 20.0166 27.4 19.3425 27.4 18.5249C27.4 17.6077 28.137 16.8674 29.05 16.8674C29.963 16.8674 30.7 17.6077 30.7 18.5249C30.7 18.6906 30.678 18.8453 30.634 19L33.043 23.0331C33.351 22.9779 33.67 22.9447 34 22.9447C37.036 22.9447 39.5 25.4199 39.5 28.4696C39.5 31.5193 37.036 33.9944 34 33.9944C33.054 33.9944 32.152 33.7513 31.371 33.3204C30.359 32.7679 30.733 31.232 31.888 31.232C32.075 31.232 32.262 31.2873 32.427 31.3867C32.889 31.6408 33.428 31.7845 34 31.7845C35.815 31.7845 37.3 30.2928 37.3 28.4696C37.3 26.6464 35.815 25.1547 34 25.1547Z" fill="url(#paint0_linear_229_56)"/>
</g>
<defs>
<linearGradient id="paint0_linear_229_56" x1="28.5" y1="13" x2="28.5" y2="34" gradientUnits="userSpaceOnUse">
<stop stop-color="white"/>
<stop offset="1" stop-color="white" stop-opacity="0.4"/>
</linearGradient>
</defs>
</svg>
