<svg width="57" height="48" viewBox="0 0 57 48" fill="none" xmlns="http://www.w3.org/2000/svg">
<g opacity="0.6">
<path d="M21.479 21.685C19.493 20.891 18.5 20.494 18.5 20C18.5 19.506 19.493 19.11 21.479 18.315L24.287 17.192C26.273 16.397 27.267 16 28.5 16C29.734 16 30.727 16.397 32.713 17.192L35.521 18.315C37.507 19.109 38.5 19.506 38.5 20C38.5 20.494 37.507 20.89 35.521 21.685L32.713 22.809C30.727 23.603 29.733 24 28.5 24C27.266 24 26.273 23.603 24.287 22.809L21.479 21.685Z" fill="white"/>
<path fill-rule="evenodd" clip-rule="evenodd" d="M18.5 20C18.5 20.494 19.493 20.89 21.479 21.685L24.287 22.809C26.273 23.603 27.267 24 28.5 24C29.734 24 30.727 23.603 32.713 22.809L35.521 21.685C37.507 20.891 38.5 20.494 38.5 20C38.5 19.506 37.507 19.11 35.521 18.315L32.713 17.192C30.727 16.397 29.733 16 28.5 16C27.266 16 26.273 16.397 24.287 17.192L21.48 18.315C19.493 19.109 18.5 19.506 18.5 20Z" fill="white"/>
<path opacity="0.7" d="M22.266 22L21.479 22.315C19.493 23.109 18.5 23.507 18.5 24C18.5 24.493 19.493 24.89 21.479 25.685L24.287 26.809C26.273 27.603 27.267 28 28.5 28C29.734 28 30.727 27.603 32.713 26.809L35.521 25.685C37.507 24.891 38.5 24.493 38.5 24C38.5 23.507 37.507 23.11 35.521 22.315L34.734 22L32.713 22.809C30.727 23.603 29.733 24 28.5 24C27.266 24 26.273 23.603 24.287 22.809L22.266 22Z" fill="white"/>
<path opacity="0.4" d="M22.266 26L21.479 26.315C19.493 27.109 18.5 27.507 18.5 28C18.5 28.494 19.493 28.89 21.479 29.685L24.287 30.809C26.273 31.603 27.267 32 28.5 32C29.734 32 30.727 31.603 32.713 30.808L35.521 29.685C37.507 28.891 38.5 28.494 38.5 28C38.5 27.507 37.507 27.11 35.521 26.315L34.734 26L32.713 26.809C30.727 27.603 29.733 28 28.5 28C27.266 28 26.273 27.603 24.287 26.809L22.266 26Z" fill="white"/>
</g>
</svg>
