<svg width="57" height="48" viewBox="0 0 57 48" fill="none" xmlns="http://www.w3.org/2000/svg">
<g opacity="0.6">
<g opacity="0.6">
<path d="M32.142 26.91L35.139 23.908C35.5697 23.4773 35.904 22.978 36.142 22.41C36.3807 21.8433 36.5 21.2483 36.5 20.625C36.5 19.337 36.0507 18.2443 35.152 17.347C34.2533 16.4497 33.159 16.0007 31.869 16C31.251 16 30.6583 16.1193 30.091 16.358C29.523 16.5967 29.0233 16.9313 28.592 17.362L25.591 20.358L32.142 26.91ZM25.132 32C25.7493 32 26.342 31.8807 26.91 31.642C27.478 31.404 27.9773 31.0697 28.408 30.639L31.41 27.642L24.858 21.091L21.862 24.092C21.4313 24.5227 21.0967 25.022 20.858 25.59C20.6193 26.1567 20.5 26.7517 20.5 27.375C20.5 28.663 20.9493 29.7557 21.848 30.653C22.7467 31.5503 23.8413 31.9993 25.132 32Z" fill="white"/>
</g>
</g>
</svg>
