<svg width="16" height="17" viewBox="0 0 16 17" fill="none" xmlns="http://www.w3.org/2000/svg">
<g opacity="0.6">
<path d="M10.4278 10.4398L12.4258 8.4385C12.7129 8.15139 12.9358 7.8185 13.0945 7.43984C13.2536 7.06206 13.3332 6.66539 13.3332 6.24984C13.3332 5.39117 13.0336 4.66273 12.4345 4.0645C11.8354 3.46628 11.1058 3.16695 10.2458 3.1665C9.83384 3.1665 9.43873 3.24606 9.0605 3.40517C8.68184 3.56428 8.34873 3.78739 8.06117 4.0745L6.0605 6.07184L10.4278 10.4398ZM5.7545 13.8332C6.16606 13.8332 6.56117 13.7536 6.93984 13.5945C7.3185 13.4358 7.65139 13.2129 7.9385 12.9258L9.93984 10.9278L5.57184 6.5605L3.5745 8.56117C3.28739 8.84828 3.06428 9.18117 2.90517 9.55984C2.74606 9.93762 2.6665 10.3343 2.6665 10.7498C2.6665 11.6085 2.96606 12.3369 3.56517 12.9352C4.16428 13.5334 4.89406 13.8327 5.7545 13.8332Z" fill="white"/>
</g>
</svg>
