<svg width="57" height="48" viewBox="0 0 57 48" fill="none" xmlns="http://www.w3.org/2000/svg">
<g opacity="0.6">
<g clip-path="url(#clip0_257_2320)">
<path opacity="0.7" fill-rule="evenodd" clip-rule="evenodd" d="M19.1966 14.6966C19.2364 14.6568 19.2838 14.6253 19.3358 14.6038C19.3879 14.5823 19.4437 14.5713 19.5 14.5714H22.0714C22.4124 14.5714 22.7394 14.436 22.9806 14.1949C23.2217 13.9537 23.3571 13.6267 23.3571 13.2857C23.3571 12.9447 23.2217 12.6177 22.9806 12.3766C22.7394 12.1355 22.4124 12 22.0714 12H19.5C18.7044 12 17.9413 12.3161 17.3787 12.8787C16.8161 13.4413 16.5 14.2044 16.5 15V17.5714C16.5 17.9124 16.6355 18.2394 16.8766 18.4806C17.1177 18.7217 17.4447 18.8571 17.7857 18.8571C18.1267 18.8571 18.4537 18.7217 18.6949 18.4806C18.936 18.2394 19.0714 17.9124 19.0714 17.5714V15C19.0713 14.9437 19.0823 14.8879 19.1038 14.8358C19.1253 14.7838 19.1568 14.7364 19.1966 14.6966ZM40.5 30.4286C40.5 30.0876 40.3645 29.7606 40.1234 29.5194C39.8823 29.2783 39.5553 29.1429 39.2143 29.1429C38.8733 29.1429 38.5463 29.2783 38.3051 29.5194C38.064 29.7606 37.9286 30.0876 37.9286 30.4286V33C37.9286 33.1137 37.8834 33.2227 37.803 33.303C37.7227 33.3834 37.6137 33.4286 37.5 33.4286H34.9286C34.5876 33.4286 34.2606 33.564 34.0194 33.8051C33.7783 34.0463 33.6429 34.3733 33.6429 34.7143C33.6429 35.0553 33.7783 35.3823 34.0194 35.6234C34.2606 35.8645 34.5876 36 34.9286 36H37.5C38.2956 36 39.0587 35.6839 39.6213 35.1213C40.1839 34.5587 40.5 33.7956 40.5 33V30.4286ZM17.7857 29.1429C18.1267 29.1429 18.4537 29.2783 18.6949 29.5194C18.936 29.7606 19.0714 30.0876 19.0714 30.4286V33C19.0714 33.1137 19.1166 33.2227 19.197 33.303C19.2773 33.3834 19.3863 33.4286 19.5 33.4286H22.0714C22.4124 33.4286 22.7394 33.564 22.9806 33.8051C23.2217 34.0463 23.3571 34.3733 23.3571 34.7143C23.3571 35.0553 23.2217 35.3823 22.9806 35.6234C22.7394 35.8645 22.4124 36 22.0714 36H19.5C18.7044 36 17.9413 35.6839 17.3787 35.1213C16.8161 34.5587 16.5 33.7956 16.5 33V30.4286C16.5 30.0876 16.6355 29.7606 16.8766 29.5194C17.1177 29.2783 17.4447 29.1429 17.7857 29.1429ZM34.9286 12C34.5876 12 34.2606 12.1355 34.0194 12.3766C33.7783 12.6177 33.6429 12.9447 33.6429 13.2857C33.6429 13.6267 33.7783 13.9537 34.0194 14.1949C34.2606 14.436 34.5876 14.5714 34.9286 14.5714H37.5C37.6137 14.5714 37.7227 14.6166 37.803 14.697C37.8834 14.7773 37.9286 14.8863 37.9286 15V17.5714C37.9286 17.9124 38.064 18.2394 38.3051 18.4806C38.5463 18.7217 38.8733 18.8571 39.2143 18.8571C39.5553 18.8571 39.8823 18.7217 40.1234 18.4806C40.3645 18.2394 40.5 17.9124 40.5 17.5714V15C40.5 14.2044 40.1839 13.4413 39.6213 12.8787C39.0587 12.3161 38.2956 12 37.5 12H34.9286Z" fill="white"/>
<path d="M24.1741 26.685C25.4441 25.8028 26.9536 25.3301 28.4999 25.3302C30.0463 25.3301 31.554 25.8028 32.8241 26.685C34.0942 27.5671 35.0641 28.8165 35.6039 30.2656C35.7942 30.7782 35.3862 31.2856 34.8377 31.2856H22.1588C21.6119 31.2856 21.2022 30.7782 21.3942 30.2656C21.934 28.8165 22.904 27.5671 24.1741 26.685Z" fill="white"/>
<path d="M31.1752 22.3269C31.8858 21.6162 32.2851 20.6524 32.2851 19.6473C32.2851 18.6423 31.8858 17.6785 31.1752 16.9678C30.4645 16.2572 29.5007 15.8579 28.4957 15.8579C27.4906 15.8579 26.5268 16.2572 25.8161 16.9678C25.1055 17.6785 24.7062 18.6423 24.7062 19.6473C24.7062 20.6524 25.1055 21.6162 25.8161 22.3269C26.5268 23.0375 27.4906 23.4368 28.4957 23.4368C29.5007 23.4368 30.4645 23.0375 31.1752 22.3269Z" fill="white"/>
</g>
</g>
<defs>
<clipPath id="clip0_257_2320">
<rect width="24" height="24" fill="white" transform="translate(16.5 12)"/>
</clipPath>
</defs>
</svg>
