<svg width="57" height="48" viewBox="0 0 57 48" fill="none" xmlns="http://www.w3.org/2000/svg">
<rect x="0.5" width="56" height="48" rx="8" fill="#383838"/>
<path d="M25.5 33H21.5C20.4 33 19.5 32.1 19.5 31V17C19.5 15.9 20.4 15 21.5 15H25.5C26.6 15 27.5 15.9 27.5 17V31C27.5 32.1 26.6 33 25.5 33Z" fill="#FF6B00"/>
<path opacity="0.4" d="M37.5 17V20C37.5 21.1 36.6 22 35.5 22H31.5C30.4 22 29.5 21.1 29.5 20V17C29.5 15.9 30.4 15 31.5 15H35.5C36.6 15 37.5 15.9 37.5 17Z" fill="#FF6B00"/>
<path opacity="0.7" d="M35.5 33H31.5C30.4 33 29.5 32.1 29.5 31V26C29.5 24.9 30.4 24 31.5 24H35.5C36.6 24 37.5 24.9 37.5 26V31C37.5 32.1 36.6 33 35.5 33Z" fill="#FF6B00"/>
</svg>
