<svg width="57" height="48" viewBox="0 0 57 48" fill="none" xmlns="http://www.w3.org/2000/svg">
<g opacity="0.6">
<path fill-rule="evenodd" clip-rule="evenodd" d="M30.7788 14.152C30.4088 14 29.9388 14 28.9998 14C28.0608 14 27.5918 14 27.2208 14.152C26.7283 14.3542 26.3362 14.7438 26.1308 15.235C26.0368 15.458 26.0008 15.719 25.9858 16.098C25.9792 16.3726 25.9026 16.641 25.7633 16.8777C25.624 17.1145 25.4266 17.3118 25.1898 17.451C24.9486 17.5851 24.6774 17.6561 24.4014 17.6575C24.1253 17.6589 23.8534 17.5907 23.6108 17.459C23.2728 17.281 23.0278 17.183 22.7858 17.151C22.2564 17.0815 21.7209 17.2238 21.2958 17.547C20.9778 17.789 20.7428 18.193 20.2738 19C19.8038 19.807 19.5698 20.21 19.5168 20.605C19.4468 21.131 19.5908 21.663 19.9168 22.084C20.0648 22.276 20.2738 22.437 20.5968 22.639C21.0738 22.936 21.3798 23.442 21.3798 24C21.3798 24.558 21.0738 25.064 20.5978 25.36C20.2738 25.563 20.0648 25.724 19.9158 25.916C19.7549 26.1239 19.6368 26.3617 19.5683 26.6156C19.4998 26.8694 19.4823 27.1343 19.5168 27.395C19.5698 27.789 19.8038 28.193 20.2738 29C20.7438 29.807 20.9778 30.21 21.2958 30.453C21.7198 30.776 22.2558 30.918 22.7858 30.849C23.0278 30.817 23.2728 30.719 23.6108 30.541C23.8536 30.4092 24.1256 30.3408 24.4019 30.3422C24.6781 30.3436 24.9494 30.4147 25.1908 30.549C25.6768 30.829 25.9648 31.344 25.9858 31.902C26.0008 32.282 26.0368 32.542 26.1308 32.765C26.3348 33.255 26.7268 33.645 27.2208 33.848C27.5908 34 28.0608 34 28.9998 34C29.9388 34 30.4088 34 30.7788 33.848C31.2714 33.6458 31.6634 33.2562 31.8688 32.765C31.9628 32.542 31.9988 32.282 32.0138 31.902C32.0338 31.344 32.3228 30.828 32.8098 30.549C33.0511 30.4149 33.3223 30.3439 33.5983 30.3425C33.8743 30.3411 34.1462 30.4093 34.3888 30.541C34.7268 30.719 34.9718 30.817 35.2138 30.849C35.7438 30.919 36.2798 30.776 36.7038 30.453C37.0218 30.211 37.2568 29.807 37.7258 29C38.1958 28.193 38.4298 27.79 38.4828 27.395C38.5172 27.1343 38.4995 26.8693 38.4309 26.6155C38.3622 26.3616 38.2439 26.1239 38.0828 25.916C37.9348 25.724 37.7258 25.563 37.4028 25.361C36.9258 25.064 36.6198 24.558 36.6198 24C36.6198 23.442 36.9258 22.936 37.4018 22.64C37.7258 22.437 37.9348 22.276 38.0838 22.084C38.2447 21.8761 38.3629 21.6383 38.4313 21.3844C38.4998 21.1306 38.5173 20.8657 38.4828 20.605C38.4298 20.211 38.1958 19.807 37.7258 19C37.2558 18.193 37.0218 17.79 36.7038 17.547C36.2788 17.2238 35.7433 17.0815 35.2138 17.151C34.9718 17.183 34.7268 17.281 34.3888 17.459C34.1461 17.5908 33.874 17.6592 33.5978 17.6578C33.3216 17.6564 33.0502 17.5853 32.8088 17.451C32.5722 17.3117 32.3751 17.1143 32.2359 16.8776C32.0968 16.6408 32.0204 16.3725 32.0138 16.098C31.9988 15.718 31.9628 15.458 31.8688 15.235C31.7672 14.9917 31.6186 14.7709 31.4316 14.5851C31.2445 14.3992 31.0227 14.2521 30.7788 14.152ZM28.9998 27C30.6698 27 32.0228 25.657 32.0228 24C32.0228 22.343 30.6688 21 28.9998 21C27.3298 21 25.9768 22.343 25.9768 24C25.9768 25.657 27.3308 27 28.9998 27Z" fill="url(#paint0_linear_229_72)"/>
</g>
<defs>
<linearGradient id="paint0_linear_229_72" x1="28.9998" y1="14" x2="28.9998" y2="34" gradientUnits="userSpaceOnUse">
<stop stop-color="white"/>
<stop offset="1" stop-color="white" stop-opacity="0.4"/>
</linearGradient>
</defs>
</svg>
